<svg xmlns="http://www.w3.org/2000/svg" width="276" height="56" viewBox="0 0 276 56"><g fill="none" fill-rule="evenodd"><path fill="#919396" d="M73.592 4.54c1.065 0 2.075.154 3.022.461a8.2 8.2 0 0 1 2.55 1.342 7.27 7.27 0 0 1 1.855 2.18c.488.87.797 1.863.923 2.983h-4.12a3.49 3.49 0 0 0-.488-1.342 4.3 4.3 0 0 0-.95-1.07 4.388 4.388 0 0 0-1.286-.718 4.409 4.409 0 0 0-1.506-.258c-.958 0-1.77.186-2.44.555a4.622 4.622 0 0 0-1.625 1.491 6.536 6.536 0 0 0-.907 2.127 10.532 10.532 0 0 0-.285 2.468c0 .813.094 1.603.285 2.372.19.768.491 1.46.907 2.073a4.665 4.665 0 0 0 1.624 1.478c.671.37 1.483.555 2.44.555 1.304 0 2.317-.398 3.052-1.193.73-.795 1.18-1.843 1.342-3.143h4.12c-.111 1.21-.391 2.303-.84 3.28a7.877 7.877 0 0 1-1.79 2.494 7.647 7.647 0 0 1-2.6 1.571c-.997.361-2.09.542-3.283.542-1.481 0-2.813-.257-3.996-.773-1.184-.515-2.184-1.223-2.996-2.127-.815-.903-1.437-1.966-1.872-3.186-.434-1.219-.649-2.534-.649-3.943 0-1.446.215-2.786.65-4.026.434-1.236 1.056-2.316 1.871-3.24.812-.92 1.812-1.643 2.996-2.166 1.183-.525 2.515-.787 3.996-.787zm78.362 5.421c1.193 0 2.233.23 3.118.692a6.225 6.225 0 0 1 2.183 1.856c.568.777.98 1.663 1.233 2.657.251.993.343 2.033.271 3.117h-10.11c.054 1.246.368 2.15.95 2.71.577.561 1.409.841 2.49.841.778 0 1.449-.194 2.009-.584.56-.387.904-.8 1.03-1.232h3.386c-.543 1.68-1.372 2.881-2.492 3.604-1.12.723-2.476 1.086-4.068 1.086-1.102 0-2.097-.177-2.979-.53a6.197 6.197 0 0 1-2.251-1.503 6.798 6.798 0 0 1-1.424-2.332c-.334-.904-.498-1.897-.498-2.982 0-1.047.167-2.023.511-2.928a6.88 6.88 0 0 1 1.465-2.345 6.883 6.883 0 0 1 2.264-1.558c.874-.379 1.847-.569 2.912-.569zm-45.564 0c1.191 0 2.231.23 3.119.692a6.219 6.219 0 0 1 2.18 1.856c.569.777.98 1.663 1.235 2.657.251.993.342 2.033.272 3.117h-10.112c.054 1.246.37 2.15.95 2.71.577.561 1.409.841 2.49.841.78 0 1.448-.194 2.008-.584.56-.387.905-.8 1.03-1.232h3.387c-.54 1.68-1.372 2.881-2.49 3.604-1.123.723-2.478 1.086-4.069 1.086-1.102 0-2.096-.177-2.98-.53a6.212 6.212 0 0 1-2.252-1.503 6.794 6.794 0 0 1-1.422-2.332c-.335-.904-.5-1.897-.5-2.982 0-1.047.17-2.023.513-2.928a6.876 6.876 0 0 1 1.463-2.345 6.873 6.873 0 0 1 2.266-1.558c.874-.379 1.845-.569 2.912-.569zm36.566.38v14.013h-3.85V10.34h3.85zm-11.466-.38c.741 0 1.429.091 2.061.27a4.168 4.168 0 0 1 1.626.868c.452.399.805.917 1.056 1.56.255.64.381 1.414.381 2.316v9.379h-3.848v-7.941c0-.47-.018-.913-.055-1.329a2.795 2.795 0 0 0-.299-1.083 1.8 1.8 0 0 0-.72-.733c-.315-.18-.743-.27-1.284-.27-.544 0-.982.104-1.317.312a2.26 2.26 0 0 0-.785.811 3.25 3.25 0 0 0-.381 1.14 8.891 8.891 0 0 0-.094 1.288v7.805h-3.848v-7.86c0-.415-.01-.826-.027-1.234a3.519 3.519 0 0 0-.233-1.125 1.727 1.727 0 0 0-.676-.825c-.317-.208-.783-.312-1.396-.312-.182 0-.419.04-.717.12-.3.083-.588.237-.868.462-.281.226-.52.551-.72.976-.197.424-.296.98-.296 1.667v8.13h-3.852V10.342h3.632v1.897h.055a5.497 5.497 0 0 1 1.83-1.681c.713-.398 1.53-.596 2.453-.596.886 0 1.696.172 2.425.515.735.344 1.29.948 1.67 1.815.415-.614.98-1.155 1.692-1.625.716-.47 1.558-.705 2.535-.705zm-43.424-4.96v7.29h.08c.489-.812 1.113-1.404 1.873-1.774.76-.371 1.501-.556 2.224-.556 1.03 0 1.874.14 2.533.42.66.28 1.18.67 1.56 1.166.379.496.646 1.103.798 1.816.153.715.23 1.505.23 2.372v8.619h-3.85V16.44c0-1.156-.179-2.02-.541-2.589-.363-.57-1.002-.853-1.923-.853-1.048 0-1.808.312-2.28.934-.467.624-.704 1.649-.704 3.076v7.346h-3.848V5h3.848zm63.782 7.86c-.615 0-1.125.105-1.533.313a2.896 2.896 0 0 0-.974.771 2.836 2.836 0 0 0-.517.977c-.1.343-.16.65-.174.92h6.261c-.18-.974-.503-1.716-.962-2.222-.463-.505-1.165-.758-2.1-.758zm-45.565 0c-.614 0-1.124.105-1.532.313a2.903 2.903 0 0 0-.976.771 2.831 2.831 0 0 0-.515.977c-.1.343-.16.65-.176.92h6.262c-.181-.974-.502-1.716-.963-2.222-.461-.505-1.162-.758-2.1-.758zm56.232-6.528c.436 0 .852.076 1.25.228.399.151.75.366 1.05.644.305.277.545.614.728 1.009.178.394.27.835.27 1.321 0 .492-.092.936-.27 1.33a3.138 3.138 0 0 1-1.778 1.658 3.56 3.56 0 0 1-1.25.223c-.434 0-.85-.076-1.248-.223a3.186 3.186 0 0 1-1.052-.644 3.159 3.159 0 0 1-.726-1.013 3.205 3.205 0 0 1-.27-1.33c0-.487.092-.928.27-1.322.183-.395.423-.732.726-1.009a3.243 3.243 0 0 1 1.052-.644 3.451 3.451 0 0 1 1.248-.228zm0 .688c-.335 0-.652.062-.948.188-.293.126-.55.3-.766.523-.218.223-.391.488-.517.795a2.625 2.625 0 0 0-.188 1.008c0 .366.062.705.188 1.014.126.308.299.575.517.801.216.227.473.403.766.529.296.126.613.19.948.19.332 0 .646-.064.941-.19.295-.126.552-.302.768-.529a2.603 2.603 0 0 0 .713-1.815 2.566 2.566 0 0 0-.713-1.803 2.375 2.375 0 0 0-1.71-.711zm.079.711c.453 0 .8.08 1.042.242.245.159.365.434.365.823 0 .166-.027.307-.072.425a.736.736 0 0 1-.203.287.893.893 0 0 1-.302.172c-.112.04-.235.066-.369.077l.963 1.57h-.748l-.874-1.536h-.448v1.537h-.711V7.732zm-.044.559h-.602v.944h.636c.206 0 .376-.028.508-.085.131-.057.196-.195.196-.413a.362.362 0 0 0-.068-.232.444.444 0 0 0-.175-.132.88.88 0 0 0-.241-.066 1.944 1.944 0 0 0-.254-.016zM142.956 5v3.172h-3.85V5h3.85z"/><path fill="#ffffff" fill-rule="nonzero" d="M215.735 36.616c1.1 0 2.05.208 2.844.622a5.9 5.9 0 0 1 1.98 1.654 7.025 7.025 0 0 1 1.166 2.399c.25.912.379 1.867.379 2.86 0 .939-.13 1.843-.38 2.71a6.92 6.92 0 0 1-1.152 2.305 5.729 5.729 0 0 1-1.924 1.599c-.768.397-1.667.597-2.697.597a5.441 5.441 0 0 1-2.4-.53 4.52 4.52 0 0 1-1.802-1.559h-.054v6.641h-3.85v-18.92h3.66v1.789h.054c.47-.758 1.066-1.309 1.79-1.652.722-.344 1.517-.515 2.386-.515zm-163.8 0c1.192 0 2.23.23 3.116.69a6.24 6.24 0 0 1 2.183 1.858c.568.776.98 1.662 1.232 2.657.254.993.343 2.033.272 3.116H48.627c.055 1.247.37 2.15.95 2.711.576.56 1.408.84 2.493.84.777 0 1.445-.194 2.005-.583.56-.388.904-.8 1.032-1.233h3.388c-.544 1.68-1.374 2.882-2.494 3.605-1.123.722-2.476 1.085-4.066 1.085-1.104 0-2.097-.176-2.983-.53a6.188 6.188 0 0 1-2.25-1.505 6.745 6.745 0 0 1-1.422-2.33c-.335-.904-.501-1.897-.501-2.982 0-1.047.17-2.023.515-2.927a6.876 6.876 0 0 1 1.462-2.345 6.883 6.883 0 0 1 2.265-1.559c.874-.379 1.847-.568 2.914-.568zm59.467 0c.832 0 1.633.107 2.4.325a6.39 6.39 0 0 1 2.06.99 5.312 5.312 0 0 1 1.479 1.652c.379.66.595 1.443.649 2.345h-3.768c-.251-1.609-1.2-2.412-2.845-2.412-.615 0-1.13.14-1.545.42-.416.28-.754.642-1.018 1.085a4.759 4.759 0 0 0-.557 1.462 8.15 8.15 0 0 0-.16 1.587c0 .505.055 1.02.16 1.545.111.523.287.998.53 1.422.245.425.574.774.99 1.044.416.272.923.407 1.518.407.921 0 1.63-.258 2.129-.773.495-.515.808-1.206.934-2.073h3.714c-.253 1.862-.976 3.28-2.169 4.255-1.193.977-2.72 1.465-4.581 1.465-1.047 0-2.01-.176-2.887-.53a6.4 6.4 0 0 1-2.236-1.476 6.74 6.74 0 0 1-1.437-2.265c-.343-.876-.514-1.838-.514-2.885 0-1.085.158-2.092.473-3.023a6.8 6.8 0 0 1 1.398-2.414 6.375 6.375 0 0 1 2.249-1.585c.886-.379 1.897-.568 3.034-.568zm45.594 0c1.102 0 2.1.176 2.995.528a6.556 6.556 0 0 1 2.29 1.491c.633.641 1.121 1.42 1.465 2.33.343.914.515 1.93.515 3.05 0 1.12-.172 2.133-.515 3.036a6.602 6.602 0 0 1-1.464 2.318 6.433 6.433 0 0 1-2.291 1.478c-.894.342-1.893.515-2.995.515-1.103 0-2.096-.173-2.982-.515a6.416 6.416 0 0 1-2.276-1.478 6.578 6.578 0 0 1-1.465-2.318c-.342-.903-.515-1.916-.515-3.036s.173-2.136.515-3.05c.344-.91.83-1.689 1.465-2.33a6.54 6.54 0 0 1 2.276-1.491c.886-.352 1.879-.528 2.982-.528zm-120.267 0c.832 0 1.63.107 2.398.325a6.39 6.39 0 0 1 2.06.99 5.291 5.291 0 0 1 1.478 1.652c.38.66.596 1.443.651 2.345h-3.77c-.25-1.609-1.2-2.412-2.844-2.412-.616 0-1.13.14-1.545.42-.416.28-.755.642-1.016 1.085a4.675 4.675 0 0 0-.557 1.462 7.584 7.584 0 0 0 0 3.132c.109.523.285.998.53 1.422.243.425.572.774.988 1.044.416.272.922.407 1.518.407.922 0 1.63-.258 2.128-.773.497-.515.807-1.206.935-2.073h3.712c-.252 1.862-.976 3.28-2.166 4.255-1.194.977-2.722 1.465-4.582 1.465-1.047 0-2.01-.176-2.886-.53a6.407 6.407 0 0 1-2.237-1.476 6.711 6.711 0 0 1-1.436-2.265c-.344-.876-.515-1.838-.515-2.885 0-1.085.158-2.092.475-3.023a6.796 6.796 0 0 1 1.395-2.414 6.375 6.375 0 0 1 2.25-1.585c.885-.379 1.897-.568 3.036-.568zm193.75 0c1.193 0 2.233.23 3.117.69a6.24 6.24 0 0 1 2.182 1.858c.57.776.981 1.662 1.233 2.657.253.993.344 2.033.27 3.116h-10.108c.054 1.247.369 2.15.948 2.711.578.56 1.41.84 2.494.84.777 0 1.446-.194 2.006-.583.559-.388.903-.8 1.03-1.233h3.388c-.543 1.68-1.373 2.882-2.494 3.605-1.12.722-2.476 1.085-4.066 1.085-1.102 0-2.097-.176-2.98-.53a6.18 6.18 0 0 1-2.252-1.505 6.745 6.745 0 0 1-1.422-2.33c-.336-.904-.502-1.897-.502-2.982 0-1.047.171-2.023.515-2.927a6.88 6.88 0 0 1 1.465-2.345 6.886 6.886 0 0 1 2.26-1.559c.878-.379 1.85-.568 2.916-.568zm-103.87 0c1.194 0 2.234.23 3.118.69a6.225 6.225 0 0 1 2.182 1.858c.57.776.981 1.662 1.231 2.657.255.993.346 2.033.274 3.116h-10.11c.053 1.247.369 2.15.95 2.711.576.56 1.407.84 2.492.84.776 0 1.446-.194 2.006-.583.56-.388.904-.8 1.03-1.233h3.388c-.543 1.68-1.373 2.882-2.494 3.605-1.12.722-2.476 1.085-4.066 1.085-1.102 0-2.097-.176-2.98-.53a6.152 6.152 0 0 1-2.25-1.505 6.724 6.724 0 0 1-1.424-2.33c-.334-.904-.502-1.897-.502-2.982 0-1.047.171-2.023.515-2.927a6.88 6.88 0 0 1 1.464-2.345 6.894 6.894 0 0 1 2.263-1.559c.876-.379 1.847-.568 2.914-.568zm136.486 0c.758 0 1.494.072 2.207.216.717.144 1.352.39 1.913.731.56.344 1.026.8 1.397 1.37.369.57.59 1.287.662 2.155h-3.658c-.055-.74-.334-1.242-.84-1.505-.507-.262-1.102-.393-1.79-.393-.217 0-.451.014-.705.04a2.388 2.388 0 0 0-.69.177c-.209.09-.385.221-.53.392-.143.173-.216.403-.216.693 0 .342.126.622.38.84.253.217.583.393.99.529.405.136.871.257 1.395.366.525.109 1.057.226 1.598.352.56.126 1.107.28 1.64.461.534.18 1.009.42 1.423.718.416.299.752.668 1.003 1.11.254.445.381.99.381 1.641 0 .92-.186 1.694-.555 2.318a4.482 4.482 0 0 1-1.451 1.505 5.936 5.936 0 0 1-2.046.798 11.878 11.878 0 0 1-4.73-.013 6.273 6.273 0 0 1-2.074-.814 4.648 4.648 0 0 1-1.491-1.504c-.39-.623-.602-1.404-.636-2.344h3.658c0 .416.084.772.257 1.07.173.3.394.542.663.732.273.19.585.33.937.42.353.092.718.135 1.097.135.272 0 .554-.03.854-.094a2.93 2.93 0 0 0 .815-.298c.244-.136.445-.316.608-.542.16-.225.245-.51.245-.854 0-.579-.385-1.011-1.153-1.302-.768-.288-1.838-.577-3.212-.867a18.957 18.957 0 0 1-1.639-.446 5.61 5.61 0 0 1-1.422-.678 3.25 3.25 0 0 1-1.003-1.058c-.255-.423-.381-.943-.381-1.559 0-.902.176-1.643.528-2.222a3.901 3.901 0 0 1 1.397-1.369 6.124 6.124 0 0 1 1.951-.704 12.012 12.012 0 0 1 2.223-.203zm-182.809 0c1.193 0 2.233.23 3.117.69a6.23 6.23 0 0 1 2.184 1.858c.569.776.98 1.662 1.233 2.657.251.993.342 2.033.27 3.116H76.98c.054 1.247.37 2.15.95 2.711.577.56 1.409.84 2.492.84.777 0 1.446-.194 2.006-.583.56-.388.905-.8 1.03-1.233h3.389c-.544 1.68-1.376 2.882-2.496 3.605-1.12.722-2.474 1.085-4.065 1.085-1.102 0-2.096-.176-2.98-.53a6.188 6.188 0 0 1-2.25-1.505 6.724 6.724 0 0 1-1.424-2.33c-.334-.904-.5-1.897-.5-2.982 0-1.047.17-2.023.515-2.927a6.85 6.85 0 0 1 1.463-2.345 6.894 6.894 0 0 1 2.263-1.559c.875-.379 1.846-.568 2.913-.568zM252.93 32.63v4.202h2.82v2.575h-2.82v6.94c0 1.301.325 1.626 1.627 1.626.406 0 .786-.026 1.192-.109v3.008c-.65.109-1.49.138-2.25.138-2.357 0-4.417-.544-4.417-3.335v-8.268h-1.445c-3.87.003-5.042 1.988-5.042 4.606v6.834h-3.85V36.832h3.66v2.508h.054c.747-1.71 2.458-2.508 4.59-2.508h2.033V32.63h3.848zm23.012 14.204v4.176h-4.255v-4.176h4.255zM97.01 36.616c1.03 0 1.876.139 2.536.419.658.28 1.178.67 1.557 1.166.38.498.648 1.104.8 1.816.153.713.23 1.505.23 2.372v8.619h-3.848v-7.914c0-1.156-.181-2.02-.542-2.588-.362-.57-1.003-.854-1.925-.854-1.049 0-1.807.31-2.277.934-.47.624-.704 1.65-.704 3.076v7.346h-3.85V36.995h3.66v1.95h.08c.489-.811 1.121-1.403 1.898-1.774a5.485 5.485 0 0 1 2.385-.555zm-82.536-4.96v3.577H4.254v4.147h9.38v3.308h-9.38v4.742h10.439v3.578H0V31.655h14.474zm160.058 4.96c.253 0 .534.045.842.135v3.578a7.06 7.06 0 0 0-.652-.095 6.914 6.914 0 0 0-.732-.04c-.704 0-1.3.117-1.788.352s-.88.555-1.179.961c-.299.408-.51.882-.637 1.424a7.778 7.778 0 0 0-.19 1.761v6.316h-3.848V36.995h3.658v2.601h.054a4.81 4.81 0 0 1 1.79-2.154 5.173 5.173 0 0 1 1.273-.61 4.614 4.614 0 0 1 1.41-.216zM64.594 31.654v19.354h-3.85V31.654h3.85zm84.73.001v3.578h-9.35v4.472h8.104v3.308h-8.104v7.995h-4.257V31.655h13.607zm42.07 0v3.578h-10.22v4.147h9.38v3.308h-9.38v4.742h10.436v3.578h-14.69V31.655h14.474zM71.18 31.654v19.354h-3.85V31.654h3.85zm-51.04 5.34l2.467 3.66 2.44-3.66h4.256l-4.61 6.561 5.178 7.453H25.48l-2.929-4.418-2.927 4.418h-4.31l5.043-7.372-4.608-6.641h4.392zm176.89 0l2.467 3.66 2.44-3.66h4.256l-4.61 6.561 5.18 7.453h-4.392l-2.93-4.418-2.926 4.418h-4.31l5.041-7.372-4.606-6.641h4.39zm17.864 2.522c-.634 0-1.162.13-1.588.392a3.2 3.2 0 0 0-1.029 1.017 4.248 4.248 0 0 0-.555 1.437 8.5 8.5 0 0 0-.163 1.681c0 .559.06 1.11.177 1.652.117.542.307 1.017.568 1.425.264.406.61.736 1.045.988.433.253.956.38 1.572.38.632 0 1.16-.127 1.585-.38a3.089 3.089 0 0 0 1.03-.988c.262-.408.45-.883.555-1.425a8.362 8.362 0 0 0 .163-1.652 7.79 7.79 0 0 0-.176-1.654 4.442 4.442 0 0 0-.582-1.45 3.26 3.26 0 0 0-1.045-1.03c-.425-.262-.945-.393-1.557-.393zm-57.898 0c-.65 0-1.192.13-1.627.392a3.135 3.135 0 0 0-1.043 1.017 4.214 4.214 0 0 0-.555 1.437 8.362 8.362 0 0 0 0 3.293c.107.534.293 1.012.555 1.436.262.426.609.765 1.043 1.017.435.253.977.38 1.627.38.651 0 1.196-.127 1.64-.38.442-.252.794-.59 1.056-1.017.263-.424.448-.902.557-1.436a8.362 8.362 0 0 0 0-3.293 4.216 4.216 0 0 0-.557-1.437 3.101 3.101 0 0 0-1.057-1.017c-.443-.261-.988-.392-1.639-.392zm-105.17 0c-.614 0-1.124.104-1.532.312a2.913 2.913 0 0 0-.975.771 2.803 2.803 0 0 0-.514.977c-.101.344-.16.65-.178.922h6.262c-.182-.976-.502-1.717-.963-2.224-.46-.505-1.161-.758-2.1-.758zm28.353 0c-.614 0-1.126.104-1.532.312a2.903 2.903 0 0 0-.976.771 2.831 2.831 0 0 0-.515.977c-.1.344-.16.65-.176.922h6.262c-.181-.976-.502-1.717-.963-2.224-.46-.505-1.16-.758-2.1-.758zm150.193 0c-.616 0-1.126.104-1.533.312a2.831 2.831 0 0 0-1.49 1.748c-.1.344-.16.65-.176.922h6.262c-.181-.976-.504-1.717-.963-2.224-.461-.505-1.163-.758-2.1-.758zm-103.87 0c-.615 0-1.125.104-1.533.312a2.831 2.831 0 0 0-1.49 1.748c-.1.344-.158.65-.175.922h6.262c-.182-.976-.502-1.717-.963-2.224-.462-.505-1.161-.758-2.1-.758zM40.443 9.96c.83 0 1.63.108 2.396.326.77.216 1.458.547 2.061.99a5.291 5.291 0 0 1 1.478 1.652c.381.66.597 1.442.651 2.345h-3.767c-.254-1.609-1.203-2.412-2.845-2.412-.616 0-1.13.14-1.547.419-.416.28-.755.642-1.016 1.085a4.714 4.714 0 0 0-.556 1.463 7.584 7.584 0 0 0 0 3.132c.11.523.286.998.529 1.422.243.425.573.774.99 1.044.414.271.92.407 1.518.407.92 0 1.63-.258 2.127-.773.496-.515.808-1.206.934-2.073h3.715c-.253 1.862-.976 3.279-2.169 4.255-1.192.975-2.72 1.465-4.58 1.465-1.049 0-2.01-.177-2.887-.53a6.37 6.37 0 0 1-2.236-1.477 6.715 6.715 0 0 1-1.438-2.264c-.342-.876-.515-1.839-.515-2.885 0-1.086.16-2.092.475-3.023a6.796 6.796 0 0 1 1.395-2.414 6.382 6.382 0 0 1 2.251-1.585c.886-.379 1.898-.569 3.037-.569zm-16.074 0c1.102 0 2.1.177 2.996.529a6.519 6.519 0 0 1 2.29 1.491c.632.64 1.12 1.417 1.464 2.33.342.914.515 1.929.515 3.05 0 1.12-.173 2.133-.515 3.036a6.602 6.602 0 0 1-1.465 2.318 6.371 6.371 0 0 1-2.29 1.476c-.895.344-1.893.517-2.995.517s-2.097-.173-2.98-.517a6.382 6.382 0 0 1-2.279-1.476 6.602 6.602 0 0 1-1.464-2.318c-.342-.903-.515-1.916-.515-3.036 0-1.121.173-2.136.515-3.05.344-.913.832-1.69 1.464-2.33a6.531 6.531 0 0 1 2.278-1.491c.884-.352 1.879-.529 2.98-.529zm28.38-4.96v7.29h.08c.489-.812 1.113-1.404 1.871-1.774.76-.371 1.5-.556 2.223-.556 1.03 0 1.875.14 2.534.42.66.28 1.18.67 1.558 1.166.38.496.646 1.103.8 1.816.153.713.23 1.505.23 2.372v8.619h-3.848V16.44c0-1.156-.18-2.02-.543-2.589-.362-.57-1.002-.853-1.924-.853-1.048 0-1.807.31-2.276.934-.472.624-.705 1.649-.705 3.076v7.346h-3.85V5h3.85zm-48.494 0v8.023l7.565-8.023h5.312l-7.563 7.643 8.295 11.71h-5.34l-5.827-8.701-2.442 2.467v6.234H0V5h4.254zm20.114 7.86c-.651 0-1.193.132-1.626.393a3.156 3.156 0 0 0-1.045 1.017 4.248 4.248 0 0 0-.555 1.437 8.49 8.49 0 0 0-.163 1.653c0 .56.056 1.107.163 1.64a4.38 4.38 0 0 0 .555 1.436c.264.426.611.765 1.045 1.016.433.254.975.381 1.626.381.65 0 1.198-.127 1.64-.38.442-.252.794-.591 1.057-1.017.262-.424.448-.903.555-1.436a8.362 8.362 0 0 0 0-3.293 4.214 4.214 0 0 0-.555-1.437 3.131 3.131 0 0 0-1.057-1.017c-.442-.261-.99-.392-1.64-.392z"/></g></svg>