<svg data-name="Layer 1" xmlns="http://www.w3.org/2000/svg" viewBox="0 0 239.52 31"><path fill="#e09e10" d="M113.64 1.43h.45v29.23h-.45z"/><path d="M126.41 4.7h-3.12v8.41h-1.12V4.7h-3.12v-1h7.36zm1.14-1.7h1v4.73a1.91 1.91 0 01.3-.36 2.2 2.2 0 01.44-.33 2.72 2.72 0 01.58-.24 2.56 2.56 0 01.69-.09 2.87 2.87 0 011.06.18 2.2 2.2 0 01.74.52 2.1 2.1 0 01.43.81 3.72 3.72 0 01.14 1v3.86h-1V9.36a2 2 0 00-.35-1.24 1.27 1.27 0 00-1.08-.45 1.93 1.93 0 00-.87.17 1.45 1.45 0 00-.6.49 2.31 2.31 0 00-.35.76 4.26 4.26 0 00-.11 1v3h-1zm12.99 9a3.26 3.26 0 01-1.23 1 3.93 3.93 0 01-1.55.29 3.27 3.27 0 01-1.32-.26 3.11 3.11 0 01-1-.7 3.22 3.22 0 01-.63-1 3.87 3.87 0 01-.21-1.33 3.58 3.58 0 01.24-1.33 3 3 0 01.67-1 2.93 2.93 0 011-.67 3.35 3.35 0 011.28-.24 3.09 3.09 0 011.2.22 2.46 2.46 0 01.94.64 2.89 2.89 0 01.61 1 4.25 4.25 0 01.21 1.38v.34h-5a2.34 2.34 0 00.63 1.4 2.16 2.16 0 00.63.44 2 2 0 00.78.16 2.48 2.48 0 001.15-.24 2.66 2.66 0 00.84-.71zm-.9-2.54a1.79 1.79 0 00-.52-1.28 1.87 1.87 0 00-1.36-.48 1.92 1.92 0 00-2 1.76zm13.24-3.85a2.65 2.65 0 00-1-.86 3.13 3.13 0 00-1.31-.29 3.3 3.3 0 00-1.44.32 3.76 3.76 0 00-1.14.87 3.93 3.93 0 00-.75 1.25 4.14 4.14 0 00-.27 1.49 4.34 4.34 0 00.27 1.54 4 4 0 00.74 1.24 3.6 3.6 0 001.13.83 3.65 3.65 0 003 0 3.7 3.7 0 001.19-1l.84.7a4 4 0 01-1.58 1.3 5.08 5.08 0 01-2 .4 4.8 4.8 0 01-1.89-.38 4.6 4.6 0 01-2.54-2.6 5.1 5.1 0 01-.37-2 5.2 5.2 0 01.36-1.95 4.6 4.6 0 011-1.58 4.8 4.8 0 011.52-1.05 4.72 4.72 0 011.93-.39 5.07 5.07 0 011.85.35 3.38 3.38 0 011.49 1.14zM155.56 3h1v10.11h-1zm8.68 9a3.16 3.16 0 01-1.24 1 3.93 3.93 0 01-1.55.29 3.27 3.27 0 01-1.32-.26 3.11 3.11 0 01-1-.7 3.22 3.22 0 01-.63-1 3.63 3.63 0 01-.22-1.28 3.58 3.58 0 01.24-1.33 3 3 0 01.67-1 2.93 2.93 0 011-.67 3.35 3.35 0 011.28-.24 3.09 3.09 0 011.2.22 2.54 2.54 0 01.94.64 2.89 2.89 0 01.61 1 4.25 4.25 0 01.21 1.38v.34h-5a2.24 2.24 0 00.19.76 2.08 2.08 0 00.44.64 2 2 0 00.62.44 2.06 2.06 0 00.79.16 2.51 2.51 0 001.15-.24 2.66 2.66 0 00.84-.71zm-.89-2.54a1.79 1.79 0 00-.52-1.28 1.87 1.87 0 00-1.36-.48 2 2 0 00-1.4.48 2 2 0 00-.64 1.28zM166 7.67a2.86 2.86 0 011.14-.73 3.9 3.9 0 011.34-.23 2.6 2.6 0 012 .65 2.81 2.81 0 01.62 2v3.19c0 .19 0 .37.07.53h-1a3.31 3.31 0 01-.06-.48v-.46a2.58 2.58 0 01-.82.79 2.43 2.43 0 01-1.24.31 3.26 3.26 0 01-.9-.12 2.17 2.17 0 01-.73-.36 1.65 1.65 0 01-.5-.58 1.72 1.72 0 01-.19-.8 1.76 1.76 0 01.4-1.21 2.45 2.45 0 011-.65 4.35 4.35 0 011.28-.27h1.66V9a1.29 1.29 0 00-.41-1 1.71 1.71 0 00-1.14-.34 3 3 0 00-1 .16 2.23 2.23 0 00-.86.52zm3 2.44a3.68 3.68 0 00-1.59.28 1 1 0 00-.59.92.92.92 0 00.4.83 1.85 1.85 0 001 .25 2 2 0 00.79-.16 1.72 1.72 0 00.57-.4 1.77 1.77 0 00.34-.6 2.42 2.42 0 00.14-.72v-.4zm4-1.76V6.87h1v1.02a1.72 1.72 0 01.3-.44 2.17 2.17 0 01.46-.38 2.32 2.32 0 01.6-.26 2.37 2.37 0 01.72-.1h.43l-.07 1.06a1.73 1.73 0 00-.56-.08 1.56 1.56 0 00-1.39.62 2.91 2.91 0 00-.44 1.7v3h-1zm15.2-2.74a2.65 2.65 0 00-1-.86 3.13 3.13 0 00-1.31-.29 3.3 3.3 0 00-1.44.32 3.76 3.76 0 00-1.14.87 3.93 3.93 0 00-.75 1.25 4.14 4.14 0 00-.27 1.49 4.34 4.34 0 00.27 1.54 4.17 4.17 0 00.74 1.24 3.6 3.6 0 001.13.83 3.65 3.65 0 003 0 3.59 3.59 0 001.19-1l.84.7a4 4 0 01-1.58 1.3 5.08 5.08 0 01-2 .4A4.8 4.8 0 01184 13a4.74 4.74 0 01-1.53-1 4.82 4.82 0 01-1-1.57 5.29 5.29 0 01-.37-2 5.2 5.2 0 01.36-1.95 4.6 4.6 0 011-1.58 4.8 4.8 0 011.52-1.05 4.72 4.72 0 011.93-.39 5.07 5.07 0 011.85.35 3.38 3.38 0 011.49 1.14zM190.79 3h1v4.73a1.83 1.83 0 01.29-.36 2.61 2.61 0 01.52-.37 2.52 2.52 0 01.58-.24 2.48 2.48 0 01.68-.09 2.83 2.83 0 011.06.18 2 2 0 011.17 1.33 3.38 3.38 0 01.14 1v3.86h-1V9.36a2 2 0 00-.34-1.24 1.3 1.3 0 00-1.08-.45 2 2 0 00-.88.17 1.59 1.59 0 00-.6.49 2.29 2.29 0 00-.34.76 3.76 3.76 0 00-.12 1v3h-1zm6.79 7a3.4 3.4 0 01.25-1.34 3.08 3.08 0 01.7-1 3 3 0 011.05-.66 3.61 3.61 0 011.33-.24 3.67 3.67 0 011.34.24 3.1 3.1 0 011.05.67 3.21 3.21 0 01.69 1 3.56 3.56 0 010 2.67 3.21 3.21 0 01-.69 1 3.12 3.12 0 01-1.05.68 3.67 3.67 0 01-1.34.24 3.61 3.61 0 01-1.33-.24 3 3 0 01-1.05-.68 3.08 3.08 0 01-.7-1 3.39 3.39 0 01-.25-1.34zm1.12 0a2.71 2.71 0 00.15.91 2 2 0 00.45.73 2.08 2.08 0 00.7.5 2.21 2.21 0 00.91.18 2.29 2.29 0 00.92-.18 2.19 2.19 0 00.7-.5 2.16 2.16 0 00.44-.73 2.7 2.7 0 000-1.83 2.06 2.06 0 00-1.14-1.22 2.29 2.29 0 00-.92-.18 2.21 2.21 0 00-.91.18 2.06 2.06 0 00-.7.49 2 2 0 00-.45.73 2.73 2.73 0 00-.15.92zm6.93-5.58a.77.77 0 01.22-.53.74.74 0 01.54-.23.71.71 0 01.54.23.73.73 0 01.22.53.74.74 0 01-.21.55.75.75 0 01-.55.21.73.73 0 01-.54-.21.71.71 0 01-.22-.55zm.24 2.45h1v6.24h-1zm7.44 1.56a2 2 0 00-.72-.58 2 2 0 00-.85-.18 2.22 2.22 0 00-.92.18 1.66 1.66 0 00-.66.5 2.1 2.1 0 00-.39.74 2.93 2.93 0 00-.14.9 2.61 2.61 0 00.58 1.64 1.93 1.93 0 00.66.5 2.05 2.05 0 00.87.18 1.86 1.86 0 001.59-.78l.77.74a2.77 2.77 0 01-1.1.73 3.67 3.67 0 01-2.61 0 2.9 2.9 0 01-1-.68 3.1 3.1 0 01-.65-1 3.52 3.52 0 01-.24-1.32 3.47 3.47 0 01.24-1.31 2.89 2.89 0 01.66-1 3.06 3.06 0 011-.69 3.43 3.43 0 011.31-.24 3.58 3.58 0 011.31.24 2.79 2.79 0 011.09.74zm7.56 3.57a3.16 3.16 0 01-1.22 1 3.93 3.93 0 01-1.55.29 3.27 3.27 0 01-1.32-.26 3.11 3.11 0 01-1-.7 3.22 3.22 0 01-.63-1 3.63 3.63 0 01-.22-1.28 3.58 3.58 0 01.24-1.33 3 3 0 01.67-1 2.93 2.93 0 011-.67 3.35 3.35 0 011.28-.24 3.09 3.09 0 011.2.22 2.54 2.54 0 01.94.64 3 3 0 01.61 1 4.25 4.25 0 01.23 1.33v.34h-5a2.24 2.24 0 00.19.76 2.08 2.08 0 00.44.64 2 2 0 00.62.44 2.06 2.06 0 00.79.16 2.51 2.51 0 001.15-.24 2.66 2.66 0 00.84-.71zM220 9.43a1.79 1.79 0 00-.52-1.28 1.87 1.87 0 00-1.36-.48 2 2 0 00-1.4.48 2 2 0 00-.64 1.28zm-99.57 14.32h-1.36v-.88h1.36v-1.4a4.8 4.8 0 01.1-1 2.29 2.29 0 01.37-.82 1.7 1.7 0 01.69-.54 2.5 2.5 0 011-.19 2.22 2.22 0 01.43 0 1 1 0 01.37.12l-.15.93a2 2 0 00-.7-.13 1.13 1.13 0 00-.54.16.9.9 0 00-.34.38 1.72 1.72 0 00-.13.6v1.92H123v.88h-1.52v5.36h-1zm3.3 2.25a3.41 3.41 0 01.26-1.34 3.21 3.21 0 01.69-1 3.1 3.1 0 011-.67 3.67 3.67 0 011.34-.24 3.61 3.61 0 011.33.24 3.14 3.14 0 011.06.67 3.21 3.21 0 01.69 1 3.4 3.4 0 01.3 1.34 3.35 3.35 0 01-.25 1.33 3.21 3.21 0 01-.69 1 3.16 3.16 0 01-1.06.68 3.61 3.61 0 01-1.33.24 3.67 3.67 0 01-1.34-.24 3.12 3.12 0 01-1-.68 3.21 3.21 0 01-.69-1 3.36 3.36 0 01-.31-1.33zm1.12 0a2.67 2.67 0 00.16.91 2.16 2.16 0 00.44.73 2.19 2.19 0 00.7.5 2.29 2.29 0 00.92.18 2.21 2.21 0 00.91-.18 2.08 2.08 0 00.7-.5 2 2 0 00.45-.73 2.67 2.67 0 00.15-.91 2.73 2.73 0 00-.15-.92 2 2 0 00-.45-.73 2.06 2.06 0 00-.7-.49 2.21 2.21 0 00-.91-.18 2.29 2.29 0 00-.92.18 2.06 2.06 0 00-1.15 1.21 2.73 2.73 0 00-.15.93zm7.15-1.65v-1.48h1v1.02a1.91 1.91 0 01.3-.44 2.17 2.17 0 01.46-.38 2.32 2.32 0 01.6-.26 2.37 2.37 0 01.72-.1h.22l.21.05-.07 1.06a1.73 1.73 0 00-.56-.08 1.56 1.56 0 00-1.39.62 2.91 2.91 0 00-.43 1.7v3h-1zm11.67-4.68h1.05l4 9.44h-1.31l-1-2.32h-4.72l-1 2.32h-1.27zm.51 1.44l-2 4.64H146zm11.06 6.52v1.48h-1v-1.03a1.72 1.72 0 01-.3.44 2.45 2.45 0 01-.46.38 2.74 2.74 0 01-.6.27 2.84 2.84 0 01-.72.1 2.79 2.79 0 01-1.06-.19 1.91 1.91 0 01-.74-.52 2.11 2.11 0 01-.44-.81 3.72 3.72 0 01-.14-1v-3.88h1v3.74a2 2 0 00.35 1.24 1.25 1.25 0 001.08.46 1.93 1.93 0 00.87-.18 1.45 1.45 0 00.6-.49 2.22 2.22 0 00.35-.76 3.69 3.69 0 00.11-1v-3h1zm5.39-3.88h-1.84v3.68a1.24 1.24 0 00.11.46.68.68 0 00.28.3 1 1 0 00.53.12 2 2 0 00.47-.06 1.72 1.72 0 00.45-.16v.95a2 2 0 01-.59.17 3.42 3.42 0 01-.62.06 2.2 2.2 0 01-.89-.15 1.21 1.21 0 01-.52-.41 1.49 1.49 0 01-.25-.66 6 6 0 01-.06-.88v-3.42h-1.36v-.88h1.36v-1.78h1v1.78h1.84zm.92 2.25a3.4 3.4 0 01.25-1.34 3.08 3.08 0 01.7-1 3 3 0 011.05-.67 3.61 3.61 0 011.33-.24 3.67 3.67 0 011.34.24 3 3 0 011.05.67 3.21 3.21 0 01.69 1 3.41 3.41 0 01.26 1.34 3.36 3.36 0 01-.26 1.33 3.21 3.21 0 01-.69 1 3 3 0 01-1.05.68 3.67 3.67 0 01-1.34.24 3.61 3.61 0 01-1.33-.24 3 3 0 01-1.05-.68 3.08 3.08 0 01-.7-1 3.35 3.35 0 01-.25-1.33zm1.12 0a2.67 2.67 0 00.15.91 2.17 2.17 0 001.18 1.22 2.42 2.42 0 001.83 0 2.19 2.19 0 00.7-.5 2.16 2.16 0 00.44-.73 2.45 2.45 0 00.16-.91 2.51 2.51 0 00-.16-.92 2.06 2.06 0 00-1.14-1.22 2.42 2.42 0 00-1.83 0 2.16 2.16 0 00-.7.49 2.18 2.18 0 00-.45.73 2.73 2.73 0 00-.18.93zm7.16-1.65v-1.48h1v1.02a1.91 1.91 0 01.3-.44 2.17 2.17 0 01.46-.38 2.32 2.32 0 01.6-.26 2.37 2.37 0 01.72-.1 2.49 2.49 0 01.84.12 2.18 2.18 0 01.57.31 1.41 1.41 0 01.35.39 3 3 0 01.21.36 2.94 2.94 0 01.8-.87 2 2 0 011.17-.31 3 3 0 011.12.18 1.74 1.74 0 01.74.52 2.1 2.1 0 01.4.82 4.61 4.61 0 01.12 1.09v3.79h-1v-3.74a2.56 2.56 0 00-.07-.62 1.3 1.3 0 00-.24-.55 1.22 1.22 0 00-.47-.39 1.74 1.74 0 00-.74-.14 1.51 1.51 0 00-.63.13 1.55 1.55 0 00-.51.37 1.87 1.87 0 00-.35.58 2.28 2.28 0 00-.13.76v3.6h-1v-3.54a2.82 2.82 0 00-.28-1.47 1 1 0 00-.92-.43 2 2 0 00-.87.17 1.69 1.69 0 00-.6.49 2.53 2.53 0 00-.35.76 4.26 4.26 0 00-.11 1v3h-1zm11 1.65a3.59 3.59 0 01.25-1.34 3.08 3.08 0 01.7-1 3 3 0 011.05-.67 3.61 3.61 0 011.33-.24 3.67 3.67 0 011.34.24 3 3 0 011.05.67 3.06 3.06 0 01.69 1 3.41 3.41 0 01.26 1.34 3.36 3.36 0 01-.26 1.33 3.06 3.06 0 01-.69 1 3 3 0 01-1.05.68 3.67 3.67 0 01-1.34.24 3.61 3.61 0 01-1.33-.24 3 3 0 01-1.05-.68 3.08 3.08 0 01-.7-1 3.54 3.54 0 01-.25-1.33zm1.17 0a2.67 2.67 0 00.15.91 2.36 2.36 0 00.45.73 2.19 2.19 0 00.7.5 2.42 2.42 0 001.83 0 2.19 2.19 0 00.7-.5 2.16 2.16 0 00.44-.73 2.45 2.45 0 00.16-.91 2.51 2.51 0 00-.16-.92 2.06 2.06 0 00-1.14-1.22 2.42 2.42 0 00-1.83 0 2.16 2.16 0 00-.7.49 2.36 2.36 0 00-.45.73 2.73 2.73 0 00-.15.92zm10.52-2.25h-1.84v3.68a1.25 1.25 0 00.1.46.74.74 0 00.28.3 1 1 0 00.54.12 1.88 1.88 0 00.46-.06 1.79 1.79 0 00.46-.16v.95a2.21 2.21 0 01-.6.17 3.34 3.34 0 01-.62.06 2.2 2.2 0 01-.89-.15 1.34 1.34 0 01-.52-.41 1.63 1.63 0 01-.25-.66 6 6 0 01-.06-.88v-3.42h-1.36v-.88h1.36v-1.78h1v1.78h1.84zm1.15-3.32a.77.77 0 01.22-.54A.77.77 0 01195 21a.72.72 0 01-.55.22.74.74 0 01-.55-.22.73.73 0 01-.23-.57zm.24 2.44h1v6.24h-1zm5.95 6.24h-1.15l-2.55-6.24h1.22l2 4.89 1.86-4.89h1.12zM209 28a3.11 3.11 0 01-1.23 1 3.88 3.88 0 01-1.54.29 3.27 3.27 0 01-1.32-.26 2.9 2.9 0 01-1.62-1.74 3.63 3.63 0 01-.22-1.28 3.58 3.58 0 01.24-1.33 3 3 0 01.66-1 3 3 0 011-.67 3.32 3.32 0 011.28-.24 3.16 3.16 0 011.2.22 2.62 2.62 0 01.94.64 2.87 2.87 0 01.6 1 4.25 4.25 0 01.22 1.38v.34h-5a2 2 0 00.19.76 2.06 2.06 0 00.43.64 2 2 0 00.63.44 2 2 0 00.79.16 2.46 2.46 0 001.14-.24 2.66 2.66 0 00.84-.71zm-.89-2.54a1.83 1.83 0 00-.52-1.28 1.88 1.88 0 00-1.36-.48 2 2 0 00-1.4.48 2 2 0 00-.64 1.28zm6.64-5.79h5.86v1h-4.74v3.12h4.4v1h-4.4v4.24h-1.12zm7.08.76a.77.77 0 01.22-.54.73.73 0 01.54-.22.7.7 0 01.54.22.79.79 0 010 1.08.71.71 0 01-.55.22.75.75 0 01-.76-.76zm.24 2.44h1v6.24h-1zm3.2-3.87h1v10.11h-1zm3.11 5.35v-1.48h1v1.02a1.91 1.91 0 01.3-.44 2.17 2.17 0 01.46-.38 2.05 2.05 0 01.6-.26 2.37 2.37 0 01.72-.1 2.53 2.53 0 01.84.12 2.18 2.18 0 01.57.31 1.41 1.41 0 01.35.39 3 3 0 01.21.36 2.94 2.94 0 01.8-.87 2 2 0 011.17-.31 3 3 0 011.12.18 1.74 1.74 0 01.74.52 2.1 2.1 0 01.4.82 4.61 4.61 0 01.12 1.09v3.79h-1v-3.74a3.18 3.18 0 00-.07-.62 1.31 1.31 0 00-.71-.94 1.74 1.74 0 00-.74-.14 1.48 1.48 0 00-.63.13 1.46 1.46 0 00-.51.37 1.7 1.7 0 00-.35.58 2.28 2.28 0 00-.13.76v3.6h-1v-3.54a2.82 2.82 0 00-.28-1.47 1 1 0 00-.92-.43 2 2 0 00-.87.17 1.69 1.69 0 00-.6.49 2.31 2.31 0 00-.35.76 4.26 4.26 0 00-.11 1v3h-1z" fill="#787878"/><path d="M52.9 1.47h-6.63a.74.74 0 00-.76.75v27.69a.81.81 0 00.76.78h6.46c3.39-.13 7-2.49 7.15-6V7.45c-.19-3.73-3.16-5.71-6.98-5.98zM55 11.71v10.84c0 2.78-2.06 3.07-2.06 3.07-.79.17-2.28.58-2.65-.53V7.19c.37-1.11 1.86-.7 2.65-.53 0 0 2.1.28 2.06 3.07zM94 6.7c.22 0 2.2.24 2.4 9.19.06 3-.55 7.89-2.11 9.47a.93.93 0 01-.74.35.73.73 0 01-.55-.27c-1.23-1.27-2-5.23-1.9-10.1v-.08c.03-4.94 1.25-8.55 2.9-8.56zm-8.19 8.55c-.08 4.66.45 10.85 3.4 13.88A6.59 6.59 0 0093.73 31 5.67 5.67 0 0098 29.08c3.65-3.7 3.66-11.74 3.63-13.31-.08-3.57-.32-14.44-7.75-14.36-5 .05-8 5.07-8.13 13.77zM24.45 30a.7.7 0 01-.62.73h-3.42a.77.77 0 01-.65-.73V9.64c.06-.22-.15-3.31-2.49-3.28a2.57 2.57 0 00-2.59 2.51V30a.7.7 0 01-.62.73h-3.6a.78.78 0 01-.67-.73V8.87a2.57 2.57 0 00-2.57-2.51c-2.35 0-2.56 3.06-2.5 3.28V30a.7.7 0 01-.62.74H.65A.78.78 0 010 30V7.66c.33-3.36 1.65-5.6 4.72-6.34a6.93 6.93 0 017.52 2.36 6.93 6.93 0 017.51-2.36c3.07.74 4.39 3 4.71 6.35zM33 17.68V8.4a2.08 2.08 0 012.1-1.86 2 2 0 011.4.57 1.31 1.31 0 01.45.94v9.63zM41.79 8a6.25 6.25 0 00-1.62-4.71 7.35 7.35 0 00-5.17-2 6.91 6.91 0 00-6.84 7.11V30a.77.77 0 00.65.73h3.56A.7.7 0 0033 30v-8.35h4V30a.77.77 0 00.65.73h3.59a.69.69 0 00.56-.73zm26.59-5.76a.77.77 0 00-.65-.74h-3.54a.7.7 0 00-.62.74V30a.77.77 0 00.65.73h3.55a.69.69 0 00.61-.73zm13.97 23.29a.7.7 0 01.73.62v4c0 .3-.1.65-.47.65h-.18a11.13 11.13 0 01-8.2-4.3c-3.62-4.92-2.66-15.42-.77-19.24a10.66 10.66 0 018.84-5.8.7.7 0 01.74.62v4a.79.79 0 01-.74.66 5.3 5.3 0 00-4.1 2.87c-1.24 2.49-1.9 10.77.29 13.75a5.39 5.39 0 003.81 2.14zM105.1 1.78a2.78 2.78 0 011.38.37 2.54 2.54 0 011 1 2.8 2.8 0 010 2.8 2.67 2.67 0 01-1 1 2.82 2.82 0 01-1.4.37 2.78 2.78 0 01-1.37-.32 2.67 2.67 0 01-1-1 2.78 2.78 0 01-.37-1.39 2.87 2.87 0 01.38-1.41 2.54 2.54 0 011-1 2.74 2.74 0 011.38-.42zm0 .47a2.37 2.37 0 00-1.14.3 2.11 2.11 0 00-.88.87 2.34 2.34 0 00-.32 1.17 2.43 2.43 0 00.31 1.16 2.18 2.18 0 00.87.86 2.34 2.34 0 002.33 0 2.1 2.1 0 00.86-.86 2.34 2.34 0 000-2.33 2.11 2.11 0 00-.88-.87 2.38 2.38 0 00-1.15-.3zm-1.22 3.89v-3h1a2.75 2.75 0 01.77.08.76.76 0 01.38.3.77.77 0 01.14.44.78.78 0 01-.24.57.88.88 0 01-.62.28.82.82 0 01.26.16 3.89 3.89 0 01.44.6l.37.59h-.6l-.26-.48A2.38 2.38 0 00105 5a.63.63 0 00-.39-.1h-.29v1.24zm.48-1.7h.64a.92.92 0 00.58-.13.44.44 0 00.08-.57.49.49 0 00-.21-.16 1.63 1.63 0 00-.48-.05h-.56z" fill="#00467f"/></svg>